<svg xmlns="http://www.w3.org/2000/svg" viewBox="0 0 32 32">
  <rect width="32" height="32" rx="6" fill="#0a0e14"/>
  <!-- Heart shape -->
  <path d="M16 26 C16 26, 6 19, 6 13 C6 9, 9 7, 12 7 C14 7, 15.5 8, 16 9.5 C16.5 8, 18 7, 20 7 C23 7, 26 9, 26 13 C26 19, 16 26, 16 26Z" 
        fill="none" stroke="#ff6b6b" stroke-width="1.5" opacity="0.8"/>
  <!-- EKG line -->
  <path d="M4 16 L10 16 L12 12 L14 20 L16 14 L18 18 L20 16 L28 16" 
        fill="none" stroke="#4da6ff" stroke-width="1.2" stroke-linecap="round" stroke-linejoin="round" opacity="0.9"/>
  <!-- Center dot -->
  <circle cx="16" cy="16" r="1.5" fill="#22d3ee"/>
</svg>
